<?xml version="1.0" encoding="utf-8"?>
<!-- Generator: Adobe Illustrator 18.0.0, SVG Export Plug-In . SVG Version: 6.00 Build 0)  -->
<!DOCTYPE svg PUBLIC "-//W3C//DTD SVG 1.1//EN" "http://www.w3.org/Graphics/SVG/1.1/DTD/svg11.dtd">
<svg version="1.1" id="Layer_1" xmlns="http://www.w3.org/2000/svg" xmlns:xlink="http://www.w3.org/1999/xlink" x="0px" y="0px"
	 viewBox="0 0 1400 980" enable-background="new 0 0 1400 980" xml:space="preserve">
<g>
	<rect fill="#FFFFFF" width="1400" height="980"/>
	<g>
		<ellipse fill="#EBEBEB" cx="700" cy="457.7" rx="669" ry="11.6"/>
		<g>
			<g>
				
					<rect x="238.7" y="338" transform="matrix(0.5012 0.8653 -0.8653 0.5012 432.3307 -64.189)" fill="#2C5D76" width="66.2" height="9.9"/>
			</g>
			<g>
				
					<rect x="273" y="401.5" transform="matrix(0.2004 0.9797 -0.9797 0.2004 635.4606 34.3691)" fill="#2C5D76" width="47.3" height="9.9"/>
			</g>
			<g>
				<circle fill="#379DCA" cx="286.4" cy="375.9" r="13.1"/>
			</g>
			<g>
				<polygon fill="#379DCA" points="296.4,430.2 327.7,410.4 357.4,399.2 308.7,460.4 				"/>
			</g>
			<g>
				<g>
					<path fill="#4DC5D5" d="M252,116.7L252,116.7c-44.8,0-81.2,36.4-81.2,81.2v94.9c0,9.7,6.5,18.3,15.8,21
						c43.5,12.4,92.1,14.6,132,0.9c8.8-3,14.6-11.3,14.6-20.6v-96.2C333.2,153.1,296.8,116.7,252,116.7z"/>
				</g>
				<g>
					<g>
						<path fill="#ACDFEB" d="M223.1,139c-1.9,0-3.7-1.1-4.5-2.9c-1.1-2.5,0-5.4,2.5-6.5c2.3-1,4.7-2,7.1-2.8
							c2.6-0.9,5.4,0.5,6.3,3.1c0.9,2.6-0.5,5.4-3.1,6.3c-2.1,0.7-4.1,1.5-6.1,2.4C224.5,138.9,223.8,139,223.1,139z"/>
					</g>
				</g>
				<g>
					<g>
						<path fill="#ACDFEB" d="M193.8,163.9c-0.9,0-1.9-0.3-2.8-0.8c-2.3-1.5-2.9-4.6-1.3-6.9c5.2-7.8,11.8-14.4,19.4-19.8
							c2.2-1.6,5.3-1,6.9,1.2c1.6,2.2,1,5.3-1.2,6.9c-6.7,4.7-12.4,10.4-16.9,17.2C196.9,163.1,195.4,163.9,193.8,163.9z"/>
					</g>
				</g>
				<g>
					<ellipse fill="#2D73A0" cx="299.6" cy="208.5" rx="20.8" ry="33.6"/>
				</g>
				<g>
					<path fill="#FFFFFF" d="M299.6,237.1c-8.6,0-15.9-13.1-15.9-28.6s7.3-28.6,15.9-28.6c8.6,0,15.9,13.1,15.9,28.6
						S308.2,237.1,299.6,237.1z"/>
				</g>
				<g>
					<path fill="#6D6E71" d="M303.5,226.4c-3.7,0-8.2-8-8.2-17.9s4.5-17.9,8.2-17.9s8.2,8,8.2,17.9S307.2,226.4,303.5,226.4z"/>
				</g>
				<g>
					<path fill="#2D73A0" d="M309.6,156.6l-1.9-6.8c-0.6-2.2-2.5-3.8-4.7-4c-11.5-1-32.4,4.4-41.6,18.3c-0.9,1.3-1.1,2.9-0.7,4.4
						l0.4,1.6c0.5,1.8,2.6,2.6,4.1,1.5c11.7-7.8,28.1-12.5,41.6-11.6C308.7,160.2,310.1,158.4,309.6,156.6z"/>
				</g>
				<g>
					<path fill="#2D73A0" d="M327.2,228.7c-2.3,0-4.1,4.2-4.1,9.3c0,5.1,1.8,9.3,4.1,9.3h21.1v-18.5H327.2z"/>
				</g>
				<g>
					<ellipse fill="#ACDFEB" cx="348.2" cy="237.9" rx="4.1" ry="9.3"/>
				</g>
			</g>
			<g>
				<path fill="#2D73A0" d="M217.3,377.4l-8-5.8c2.5-3.4,6.6-13.2,6.9-41.2c0.1-16.5-1.2-31.2-1.2-31.3l9.8-0.9
					C225.4,304.3,230.2,359.8,217.3,377.4z"/>
			</g>
			<g>
				<path fill="#2D73A0" d="M154.8,419.3l-4.9-8.6c10.4-6,48.9-32.8,49.2-33l5.7,8.1C203.1,387,165.5,413.1,154.8,419.3z"/>
			</g>
			<g>
				<circle fill="#4DC5D5" cx="204.6" cy="378.8" r="13.1"/>
			</g>
			<g>
				<circle fill="#3AA1C7" cx="219.9" cy="282.2" r="24.3"/>
			</g>
			<g>
				<polygon fill="#4DC5D5" points="155,419.6 155,436.6 191.5,454.6 139.8,454.6 125.3,413.1 149.7,410.7 				"/>
			</g>
		</g>
		<g>
			<g>
				
					<rect x="517.8" y="348.8" transform="matrix(0.6592 0.7519 -0.7519 0.6592 450.4837 -286.6003)" fill="#2C5D76" width="47.3" height="9.9"/>
			</g>
			<g>
				
					<rect x="526.5" y="374.8" transform="matrix(0.7594 0.6506 -0.6506 0.7594 393.1165 -247.628)" fill="#2C5D76" width="9.9" height="65.9"/>
			</g>
			<g>
				<g>
					<polygon fill="#379DCA" points="507.5,423.9 541.6,436.6 568.1,453.2 491.2,451.6 					"/>
				</g>
			</g>
			<g>
				<g>
					<g>
						<path fill="#4DC5D5" d="M491.6,144.3L491.6,144.3c-43.7-5.9-83.9,24.7-89.9,68.4l-12.5,92.5c-1.3,9.5,3.9,18.7,12.7,22.5
							c40.8,17.8,87.9,26.4,128.5,18.3c8.9-1.8,15.7-9.1,16.9-18.1l12.7-93.8C565.9,190.5,535.3,150.2,491.6,144.3z"/>
					</g>
				</g>
				<g>
					<g>
						<g>
							<path fill="#ACDFEB" d="M460.5,162.2c-1.8-0.2-3.4-1.5-4-3.4c-0.8-2.6,0.7-5.3,3.3-6.1c2.4-0.7,4.8-1.3,7.3-1.8
								c2.6-0.5,5.2,1.2,5.7,3.9c0.5,2.6-1.2,5.2-3.9,5.7c-2.1,0.4-4.2,0.9-6.3,1.5C461.9,162.3,461.2,162.3,460.5,162.2z"/>
						</g>
					</g>
				</g>
				<g>
					<g>
						<g>
							<path fill="#ACDFEB" d="M428.6,182.6c-0.9-0.1-1.8-0.5-2.6-1.2c-2-1.8-2.2-4.9-0.4-6.9c6.1-6.9,13.4-12.5,21.6-16.7
								c2.4-1.2,5.3-0.3,6.6,2.1c1.2,2.4,0.3,5.3-2.1,6.6c-7.1,3.7-13.4,8.5-18.7,14.5C431.8,182.3,430.2,182.8,428.6,182.6z"/>
						</g>
					</g>
				</g>
				<g>
					<g>
						
							<ellipse transform="matrix(0.991 0.1342 -0.1342 0.991 36.9595 -68.3919)" fill="#2D73A0" cx="525.9" cy="240" rx="20.5" ry="33"/>
					</g>
				</g>
				<g>
					<g>
						<path fill="#FFFFFF" d="M522.1,267.9c-8.4-1.1-13.7-14.9-11.7-30s10.9-27,19.2-25.8c8.4,1.1,13.7,14.9,11.7,30
							C539.3,257.2,530.5,269.1,522.1,267.9z"/>
					</g>
				</g>
				<g>
					<g>
						<path fill="#6D6E71" d="M527.3,257.9c-3.6-0.5-7-8.9-5.7-18.5s6.8-16.8,10.4-16.3c3.6,0.5,7,8.9,5.7,18.5
							S531,258.4,527.3,257.9z"/>
					</g>
				</g>
				<g>
					<g>
						<path fill="#2D73A0" d="M542.5,190.8l-0.9-6.9c-0.3-2.2-1.9-4-4.1-4.5c-11.1-2.5-32.2,0-42.9,12.3c-1,1.2-1.5,2.7-1.3,4.2
							l0.2,1.6c0.2,1.8,2.2,2.8,3.8,2c12.4-6,29-8.5,42.1-5.8C541.1,194.1,542.7,192.6,542.5,190.8z"/>
					</g>
				</g>
				<g>
					<g>
						<path fill="#2D73A0" d="M550.1,263.3c-2.2-0.3-4.6,3.5-5.2,8.5c-0.7,5,0.6,9.3,2.8,9.6l20.5,2.8l2.4-18.1L550.1,263.3z"/>
					</g>
				</g>
				<g>
					<g>
						
							<ellipse transform="matrix(-0.991 -0.1342 0.1342 -0.991 1096.7428 624.2034)" fill="#ACDFEB" cx="569.4" cy="275.1" rx="4.1" ry="9.1"/>
					</g>
				</g>
			</g>
			<g>
				
					<rect x="421.3" y="330.6" transform="matrix(0.5622 0.827 -0.827 0.5622 479.1706 -234.0527)" fill="#2D73A0" width="78.8" height="9.9"/>
			</g>
			<g>
				
					<rect x="446.9" y="357" transform="matrix(0.3035 0.9528 -0.9528 0.3035 677.9407 -164.994)" fill="#2D73A0" width="9.9" height="48.4"/>
			</g>
			<g>
				<g>
					<polygon fill="#4DC5D5" points="431.1,383.3 429.1,419.7 421.2,449.9 399.8,376 					"/>
				</g>
			</g>
			<g>
				<g>
					<circle fill="#3AA1C7" cx="438.5" cy="301.3" r="23.9"/>
				</g>
			</g>
			<g>
				<g>
					<circle fill="#4DC5D5" cx="482.8" cy="369.8" r="12.9"/>
				</g>
			</g>
			<g>
				<g>
					<circle fill="#379DCA" cx="557" cy="375.6" r="12.9"/>
				</g>
			</g>
		</g>
		<g>
			<g>
				
					<rect x="694.6" y="291.2" transform="matrix(0.9839 0.1785 -0.1785 0.9839 69.6646 -119.6049)" fill="#2C5D76" width="9.9" height="72.4"/>
			</g>
			<g>
				
					<rect x="675.4" y="368.7" transform="matrix(0.9572 0.2894 -0.2894 0.9572 145.3523 -179.7013)" fill="#2C5D76" width="9.9" height="65.8"/>
			</g>
			<g>
				<g>
					<g>
						<path fill="#4DC5D5" d="M673.7,99.7L673.7,99.7c-43.9,4.4-75.9,43.5-71.6,87.4l9.2,92.9c0.9,9.5,8.1,17.3,17.5,19
							c43.8,7.9,91.6,5.4,129.3-11.9c8.3-3.8,13.2-12.5,12.3-21.6l-9.3-94.2C756.7,127.4,717.6,95.3,673.7,99.7z"/>
					</g>
				</g>
				<g>
					<g>
						<g>
							<path fill="#ACDFEB" d="M647.6,124.3c-1.8,0.2-3.7-0.7-4.7-2.4c-1.3-2.3-0.6-5.3,1.8-6.6c2.2-1.2,4.4-2.4,6.7-3.4
								c2.4-1.1,5.3,0,6.4,2.4c1.1,2.5,0,5.3-2.4,6.4c-2,0.9-3.9,1.9-5.8,3C649,124,648.3,124.2,647.6,124.3z"/>
						</g>
					</g>
				</g>
				<g>
					<g>
						<g>
							<path fill="#ACDFEB" d="M621.3,151.5c-0.9,0.1-1.9-0.1-2.8-0.6c-2.4-1.3-3.3-4.2-2-6.6c4.4-8.1,10.1-15.3,17.1-21.2
								c2-1.7,5.1-1.5,6.9,0.5c1.7,2,1.5,5.1-0.5,6.9c-6.1,5.2-11.1,11.4-14.9,18.5C624.3,150.4,622.9,151.3,621.3,151.5z"/>
						</g>
					</g>
				</g>
				<g>
					<g>
						
							<ellipse transform="matrix(0.9951 -9.877919e-02 9.877919e-02 0.9951 -14.6904 72.9334)" fill="#2D73A0" cx="729.2" cy="184.8" rx="20.5" ry="33"/>
					</g>
				</g>
				<g>
					<g>
						<path fill="#FFFFFF" d="M732,212.9c-8.4,0.8-16.8-11.3-18.3-26.5c-1.5-15.2,4.3-28.7,12.7-29.6c8.4-0.8,16.8,11.3,18.3,26.5
							C746.2,198.5,740.4,212,732,212.9z"/>
					</g>
				</g>
				<g>
					<g>
						<path fill="#6D6E71" d="M734.8,201.9c-3.7,0.4-8.8-7-9.8-16.7s2.7-17.9,6.3-18.3s8.8,7,9.8,16.7S738.4,201.6,734.8,201.9z"/>
					</g>
				</g>
				<g>
					<g>
						<path fill="#2D73A0" d="M734,133.1l-2.5-6.5c-0.8-2.1-2.8-3.5-5-3.5c-11.4,0.1-31.3,7.5-38.9,21.9c-0.7,1.4-0.8,3-0.3,4.4
							l0.6,1.5c0.6,1.7,2.8,2.3,4.2,1.1c10.7-8.8,26.2-14.9,39.6-15.4C733.4,136.7,734.6,134.8,734,133.1z"/>
					</g>
				</g>
				<g>
					<g>
						<path fill="#2D73A0" d="M758.2,201.9c-2.2,0.2-3.6,4.5-3.1,9.5c0.5,5,2.7,8.9,4.9,8.7l20.6-2l-1.8-18.2L758.2,201.9z"/>
					</g>
				</g>
				<g>
					<g>
						
							<ellipse transform="matrix(-0.9951 9.877918e-02 -9.877918e-02 -0.9951 1576.2048 339.8359)" fill="#ACDFEB" cx="779.7" cy="208.9" rx="4.1" ry="9.1"/>
					</g>
				</g>
			</g>
			<g>
				<g>
					<circle fill="#379DCA" cx="693.1" cy="363" r="12.9"/>
				</g>
			</g>
			<g>
				<g>
					<polygon fill="#379DCA" points="666,424.6 700.8,435.2 728.3,450.2 651.4,453.2 					"/>
				</g>
			</g>
			<g>
				<g>
					
						<rect x="691.2" y="304.7" transform="matrix(0.2773 0.9608 -0.9608 0.2773 837.2557 -417.4806)" fill="#2D73A0" width="9.9" height="86.2"/>
				</g>
				<g>
					
						<rect x="661.1" y="299.4" transform="matrix(0.7959 0.6054 -0.6054 0.7959 328.8596 -366.946)" fill="#2D73A0" width="95.3" height="9.9"/>
				</g>
				<g>
					<g>
						<circle fill="#4DC5D5" cx="745" cy="333.2" r="12.9"/>
					</g>
				</g>
				<g>
					<g>
						<circle fill="#3AA1C7" cx="658.4" cy="264.7" r="23.9"/>
					</g>
				</g>
				<g>
					<g>
						<polygon fill="#4DC5D5" points="658.4,353.6 653.5,389.7 643.2,419.2 627.8,343.9 						"/>
					</g>
				</g>
			</g>
		</g>
		<g>
			<g>
				<polygon fill="#2C5D76" points="802.9,416.9 794.2,412.1 844.8,322 872.7,243 882,246.3 853.9,326.1 				"/>
			</g>
			<g>
				<g>
					<g>
						<path fill="#4DC5D5" d="M879.1,61.9L879.1,61.9c-43.4,7.9-72.1,49.5-64.2,92.9l16.8,91.8c1.7,9.4,9.5,16.6,19,17.5
							c44.3,4.2,91.7-2.1,127.9-22.5c7.9-4.5,12.1-13.5,10.5-22.5l-17-93.1C964.1,82.7,922.5,53.9,879.1,61.9z"/>
					</g>
				</g>
				<g>
					<g>
						<g>
							<path fill="#ACDFEB" d="M855.1,88.6c-1.8,0.3-3.8-0.4-4.9-2c-1.5-2.2-1-5.2,1.2-6.8c2-1.4,4.2-2.8,6.4-4
								c2.3-1.3,5.3-0.4,6.6,1.9c1.3,2.4,0.4,5.3-1.9,6.6c-1.9,1-3.7,2.2-5.5,3.4C856.4,88.2,855.8,88.4,855.1,88.6z"/>
						</g>
					</g>
				</g>
				<g>
					<g>
						<g>
							<path fill="#ACDFEB" d="M831.1,117.8c-0.9,0.2-1.9,0.1-2.8-0.3c-2.5-1.1-3.6-3.9-2.5-6.4c3.7-8.4,8.8-16,15.3-22.6
								c1.9-1.9,5-1.9,6.9,0c1.9,1.9,1.9,5,0,6.9c-5.6,5.7-10.1,12.3-13.3,19.6C834,116.5,832.7,117.5,831.1,117.8z"/>
						</g>
					</g>
				</g>
				<g>
					<g>
						
							<ellipse transform="matrix(0.9837 -0.1799 0.1799 0.9837 -10.2227 171.6616)" fill="#2D73A0" cx="941.4" cy="142.2" rx="20.5" ry="33"/>
					</g>
				</g>
				<g>
					<g>
						<path fill="#FFFFFF" d="M946.4,169.9c-8.3,1.5-17.7-9.9-20.4-24.9c-2.7-15,2-29,10.3-30.5c8.3-1.5,17.7,9.9,20.4,24.9
							S954.8,168.4,946.4,169.9z"/>
					</g>
				</g>
				<g>
					<g>
						<path fill="#6D6E71" d="M948.3,158.8c-3.6,0.7-9.4-6.3-11.1-15.8c-1.8-9.6,1.2-18.1,4.8-18.8c3.6-0.7,9.4,6.3,11.1,15.8
							C954.9,149.6,951.9,158.1,948.3,158.8z"/>
					</g>
				</g>
				<g>
					<g>
						<path fill="#2D73A0" d="M941.9,90.3l-3-6.2c-1-2-3.1-3.2-5.3-3c-11.3,1.1-30.6,10-37,25c-0.6,1.4-0.6,3,0.1,4.4l0.7,1.4
							c0.8,1.7,2.9,2,4.2,0.8c10-9.6,24.9-17,38.2-18.6C941.6,93.8,942.7,91.9,941.9,90.3z"/>
					</g>
				</g>
				<g>
					<g>
						<path fill="#2D73A0" d="M971.7,156.8c-2.2,0.4-3.3,4.7-2.3,9.7c0.9,5,3.4,8.6,5.6,8.2l20.4-3.7l-3.3-17.9L971.7,156.8z"/>
					</g>
				</g>
				<g>
					<g>
						
							<ellipse transform="matrix(-0.9837 0.1799 -0.1799 -0.9837 2000.2725 142.7988)" fill="#ACDFEB" cx="993.7" cy="162.1" rx="4.1" ry="9.1"/>
					</g>
				</g>
			</g>
			<g>
				<polygon fill="#2D73A0" points="934.3,311.7 927.4,304.6 995.6,238.3 887.7,226.5 888.7,216.7 1017.6,230.7 				"/>
			</g>
			<g>
				<g>
					<circle fill="#4DC5D5" cx="1006.6" cy="234.5" r="12.9"/>
				</g>
			</g>
			<g>
				<g>
					<polygon fill="#4DC5D5" points="930.8,301.2 962.2,319.7 985.3,340.6 909.9,325.6 					"/>
				</g>
			</g>
			<g>
				<g>
					<circle fill="#379DCA" cx="849.4" cy="324.1" r="12.9"/>
				</g>
			</g>
			<g>
				<g>
					<polygon fill="#379DCA" points="797.9,407.9 822.4,434.9 847,453 807.5,453.2 770.7,425 					"/>
				</g>
			</g>
			<g>
				<g>
					<circle fill="#3AA1C7" cx="877.3" cy="227.6" r="23.9"/>
				</g>
			</g>
		</g>
		<g>
			<g>
				<polygon fill="#2C5D76" points="1024.5,420.1 1016.9,413.7 1069.8,351.1 1108.5,273.3 1117.3,277.7 1078.1,356.6 				"/>
			</g>
			<g>
				<g>
					<g>
						<g>
							<path fill="#4DC5D5" d="M1095.8,85.9L1095.8,85.9c-43.4,7.9-72.1,49.5-64.2,92.9l16.8,91.8c1.7,9.4,9.5,16.6,19,17.5
								c44.3,4.2,91.7-2.1,127.9-22.5c7.9-4.5,12.1-13.5,10.5-22.5l-17-93.1C1180.8,106.7,1139.2,78,1095.8,85.9z"/>
						</g>
					</g>
				</g>
				<g>
					<g>
						<g>
							<g>
								<path fill="#ACDFEB" d="M1071.9,112.6c-1.8,0.3-3.8-0.4-4.9-2c-1.5-2.2-1-5.2,1.2-6.8c2-1.4,4.2-2.8,6.4-4
									c2.3-1.3,5.3-0.4,6.6,1.9c1.3,2.4,0.4,5.3-1.9,6.6c-1.9,1-3.7,2.2-5.5,3.4C1073.2,112.2,1072.5,112.5,1071.9,112.6z"/>
							</g>
						</g>
					</g>
				</g>
				<g>
					<g>
						<g>
							<g>
								<path fill="#ACDFEB" d="M1047.9,141.8c-0.9,0.2-1.9,0.1-2.8-0.3c-2.5-1.1-3.6-3.9-2.5-6.4c3.7-8.4,8.8-16,15.3-22.6
									c1.9-1.9,5-1.9,6.9,0c1.9,1.9,1.9,5,0,6.9c-5.6,5.7-10.1,12.3-13.3,19.6C1050.8,140.5,1049.4,141.5,1047.9,141.8z"/>
							</g>
						</g>
					</g>
				</g>
				<g>
					<g>
						<g>
							
								<ellipse transform="matrix(0.9837 -0.1799 0.1799 0.9837 -11.0092 211.0415)" fill="#2D73A0" cx="1158.1" cy="166.2" rx="20.5" ry="33"/>
						</g>
					</g>
				</g>
				<g>
					<g>
						<g>
							<path fill="#FFFFFF" d="M1163.2,193.9c-8.3,1.5-17.7-9.9-20.4-24.9s2-29,10.3-30.5c8.3-1.5,17.7,9.9,20.4,24.9
								C1176.2,178.4,1171.5,192.4,1163.2,193.9z"/>
						</g>
					</g>
				</g>
				<g>
					<g>
						<g>
							<path fill="#6D6E71" d="M1165,182.8c-3.6,0.7-9.4-6.3-11.1-15.8s1.2-18.1,4.8-18.8c3.6-0.7,9.4,6.3,11.1,15.8
								C1171.6,173.7,1168.7,182.2,1165,182.8z"/>
						</g>
					</g>
				</g>
				<g>
					<g>
						<g>
							<path fill="#2D73A0" d="M1158.6,114.3l-3-6.2c-1-2-3.1-3.2-5.3-3c-11.3,1.1-30.6,10-37,25c-0.6,1.4-0.6,3,0.1,4.4l0.7,1.4
								c0.8,1.7,2.9,2,4.2,0.8c10-9.6,24.9-17,38.2-18.6C1158.4,117.9,1159.4,115.9,1158.6,114.3z"/>
						</g>
					</g>
				</g>
				<g>
					<g>
						<g>
							<path fill="#2D73A0" d="M1188.4,180.9c-2.2,0.4-3.3,4.7-2.3,9.7c0.9,5,3.4,8.6,5.6,8.2l20.4-3.7l-3.3-17.9L1188.4,180.9z"/>
						</g>
					</g>
				</g>
				<g>
					<g>
						<g>
							
								<ellipse transform="matrix(-0.9837 0.1799 -0.1799 -0.9837 2434.5227 151.4716)" fill="#ACDFEB" cx="1210.4" cy="186.1" rx="4.1" ry="9.1"/>
						</g>
					</g>
				</g>
			</g>
			<g>
				<g>
					<g>
						<circle fill="#379DCA" cx="1073.9" cy="353.9" r="12.9"/>
					</g>
				</g>
			</g>
			<g>
				<g>
					<g>
						<polygon fill="#379DCA" points="1019.3,407.9 1043.8,434.9 1068.4,453 1029,453.2 992.2,425 						"/>
					</g>
				</g>
			</g>
			<g>
				<polygon fill="#2D73A0" points="1234.3,396.8 1214.7,301.3 1092.4,256.3 1095.8,247 1223.3,294 1244,394.8 				"/>
			</g>
			<g>
				<g>
					<g>
						<circle fill="#4DC5D5" cx="1219" cy="301.2" r="12.9"/>
					</g>
				</g>
			</g>
			<g>
				<g>
					<g>
						<polygon fill="#4DC5D5" points="1231.9,391.9 1268.3,390.5 1299.1,395.6 1227.5,423.7 						"/>
					</g>
				</g>
			</g>
			<g>
				<g>
					<g>
						<circle fill="#3AA1C7" cx="1094.1" cy="251.6" r="23.9"/>
					</g>
				</g>
			</g>
		</g>
		<ellipse fill="#EBEBEB" cx="700" cy="907.9" rx="669" ry="11.6"/>
		<g>
			<g>
				<path fill="#2C5D76" d="M217.3,827.5l-8-5.8c2.5-3.4,6.6-13.2,6.9-41.2c0.1-16.5-1.2-31.2-1.2-31.3l9.8-0.9
					C225.4,754.5,230.2,809.9,217.3,827.5z"/>
			</g>
			<g>
				<path fill="#2C5D76" d="M154.8,869.5l-4.9-8.6c10.4-6,48.9-32.8,49.2-33l5.7,8.1C203.1,837.1,165.5,863.2,154.8,869.5z"/>
			</g>
			<g>
				<circle fill="#379DCA" cx="204.6" cy="828.9" r="13.1"/>
			</g>
			<g>
				<polygon fill="#379DCA" points="155,869.7 155,886.7 191.5,904.7 139.8,904.7 125.3,863.2 149.7,860.8 				"/>
			</g>
			<g>
				<g>
					<path fill="#4DC5D5" d="M252,566.9L252,566.9c-44.8,0-81.2,36.4-81.2,81.2V743c0,9.7,6.5,18.3,15.8,21
						c43.5,12.4,92.1,14.6,132,0.9c8.8-3,14.6-11.3,14.6-20.6v-96.2C333.2,603.2,296.8,566.9,252,566.9z"/>
				</g>
				<g>
					<g>
						<path fill="#ACDFEB" d="M223.1,589.2c-1.9,0-3.7-1.1-4.5-2.9c-1.1-2.5,0-5.4,2.5-6.5c2.3-1,4.7-2,7.1-2.8
							c2.6-0.9,5.4,0.5,6.3,3.1c0.9,2.6-0.5,5.4-3.1,6.3c-2.1,0.7-4.1,1.5-6.1,2.4C224.5,589,223.8,589.2,223.1,589.2z"/>
					</g>
				</g>
				<g>
					<g>
						<path fill="#ACDFEB" d="M193.8,614c-0.9,0-1.9-0.3-2.8-0.8c-2.3-1.5-2.9-4.6-1.3-6.9c5.2-7.8,11.8-14.4,19.4-19.8
							c2.2-1.6,5.3-1,6.9,1.2c1.6,2.2,1,5.3-1.2,6.9c-6.7,4.7-12.4,10.4-16.9,17.2C196.9,613.2,195.4,614,193.8,614z"/>
					</g>
				</g>
				<g>
					<ellipse fill="#2D73A0" cx="299.6" cy="658.6" rx="20.8" ry="33.6"/>
				</g>
				<g>
					<path fill="#FFFFFF" d="M299.6,687.2c-8.6,0-15.9-13.1-15.9-28.6s7.3-28.6,15.9-28.6c8.6,0,15.9,13.1,15.9,28.6
						S308.2,687.2,299.6,687.2z"/>
				</g>
				<g>
					<path fill="#6D6E71" d="M303.5,676.5c-3.7,0-8.2-8-8.2-17.9s4.5-17.9,8.2-17.9s8.2,8,8.2,17.9S307.2,676.5,303.5,676.5z"/>
				</g>
				<g>
					<path fill="#2D73A0" d="M309.6,606.8l-1.9-6.8c-0.6-2.2-2.5-3.8-4.7-4c-11.5-1-32.4,4.4-41.6,18.3c-0.9,1.3-1.1,2.9-0.7,4.4
						l0.4,1.6c0.5,1.8,2.6,2.6,4.1,1.5c11.7-7.8,28.1-12.5,41.6-11.6C308.7,610.3,310.1,608.5,309.6,606.8z"/>
				</g>
				<g>
					<path fill="#2D73A0" d="M327.2,678.8c-2.3,0-4.1,4.2-4.1,9.3s1.8,9.3,4.1,9.3h21.1v-18.5H327.2z"/>
				</g>
				<g>
					<ellipse fill="#ACDFEB" cx="348.2" cy="688.1" rx="4.1" ry="9.3"/>
				</g>
			</g>
			<g>
				<polygon fill="#2D73A0" points="284.2,824.1 215.6,736.8 224.2,731.8 292.7,819.2 				"/>
			</g>
			<g>
				
					<rect x="273" y="851.7" transform="matrix(0.2004 0.9797 -0.9797 0.2004 1076.4519 394.2888)" fill="#2D73A0" width="47.3" height="9.9"/>
			</g>
			<g>
				<circle fill="#4DC5D5" cx="286.4" cy="826" r="13.1"/>
			</g>
			<g>
				<polygon fill="#4DC5D5" points="296.4,880.4 327.7,860.6 357.4,849.3 308.7,910.6 				"/>
			</g>
			<g>
				<circle fill="#3AA1C7" cx="219.9" cy="732.3" r="24.3"/>
			</g>
		</g>
		<g>
			<g>
				
					<rect x="421.3" y="780.7" transform="matrix(0.5622 0.827 -0.827 0.5622 851.4304 -36.9771)" fill="#2C5D76" width="78.8" height="9.9"/>
			</g>
			<g>
				
					<rect x="446.9" y="807.1" transform="matrix(0.3035 0.9528 -0.9528 0.3035 1106.8375 148.536)" fill="#2C5D76" width="9.9" height="48.4"/>
			</g>
			<g>
				<g>
					<polygon fill="#379DCA" points="431.1,833.4 429.1,869.8 421.2,900 399.8,826.1 					"/>
				</g>
			</g>
			<g>
				<g>
					<circle fill="#379DCA" cx="482.8" cy="819.9" r="12.9"/>
				</g>
			</g>
			<g>
				<g>
					<g>
						<path fill="#4DC5D5" d="M491.6,594.4L491.6,594.4c-43.7-5.9-83.9,24.7-89.9,68.4l-12.5,92.5c-1.3,9.5,3.9,18.7,12.7,22.5
							c40.8,17.8,87.9,26.4,128.5,18.3c8.9-1.8,15.7-9.1,16.9-18.1l12.7-93.8C565.9,640.6,535.3,600.4,491.6,594.4z"/>
					</g>
				</g>
				<g>
					<g>
						<g>
							<path fill="#ACDFEB" d="M460.5,612.4c-1.8-0.2-3.4-1.5-4-3.4c-0.8-2.6,0.7-5.3,3.3-6.1c2.4-0.7,4.8-1.3,7.3-1.8
								c2.6-0.5,5.2,1.2,5.7,3.9c0.5,2.6-1.2,5.2-3.9,5.7c-2.1,0.4-4.2,0.9-6.3,1.5C461.9,612.4,461.2,612.5,460.5,612.4z"/>
						</g>
					</g>
				</g>
				<g>
					<g>
						<g>
							<path fill="#ACDFEB" d="M428.6,632.7c-0.9-0.1-1.8-0.5-2.6-1.2c-2-1.8-2.2-4.9-0.4-6.9c6.1-6.9,13.4-12.5,21.6-16.7
								c2.4-1.2,5.3-0.3,6.6,2.1c1.2,2.4,0.3,5.3-2.1,6.6c-7.1,3.7-13.4,8.5-18.7,14.5C431.8,632.4,430.2,632.9,428.6,632.7z"/>
						</g>
					</g>
				</g>
				<g>
					<g>
						
							<ellipse transform="matrix(0.991 0.1342 -0.1342 0.991 97.3585 -64.3212)" fill="#2D73A0" cx="525.9" cy="690.1" rx="20.5" ry="33"/>
					</g>
				</g>
				<g>
					<g>
						<path fill="#FFFFFF" d="M522.1,718c-8.4-1.1-13.7-14.9-11.7-30c2-15.1,10.9-27,19.2-25.8c8.4,1.1,13.7,14.9,11.7,30
							S530.5,719.2,522.1,718z"/>
					</g>
				</g>
				<g>
					<g>
						<path fill="#6D6E71" d="M527.3,708.1c-3.6-0.5-7-8.9-5.7-18.5s6.8-16.8,10.4-16.3s7,8.9,5.7,18.5S531,708.6,527.3,708.1z"/>
					</g>
				</g>
				<g>
					<g>
						<path fill="#2D73A0" d="M542.5,640.9l-0.9-6.9c-0.3-2.2-1.9-4-4.1-4.5c-11.1-2.5-32.2,0-42.9,12.3c-1,1.2-1.5,2.7-1.3,4.2
							l0.2,1.6c0.2,1.8,2.2,2.8,3.8,2c12.4-6,29-8.5,42.1-5.8C541.1,644.2,542.7,642.7,542.5,640.9z"/>
					</g>
				</g>
				<g>
					<g>
						<path fill="#2D73A0" d="M550.1,713.4c-2.2-0.3-4.6,3.5-5.2,8.5c-0.7,5,0.6,9.3,2.8,9.6l20.5,2.8l2.4-18.1L550.1,713.4z"/>
					</g>
				</g>
				<g>
					<g>
						
							<ellipse transform="matrix(-0.991 -0.1342 0.1342 -0.991 1036.3439 1520.3768)" fill="#ACDFEB" cx="569.4" cy="725.3" rx="4.1" ry="9.1"/>
					</g>
				</g>
			</g>
			<g>
				<polygon fill="#2D73A0" points="553.3,824.9 438.5,756.6 445.9,750.1 560.8,818.4 				"/>
			</g>
			<g>
				
					<rect x="526.5" y="824.9" transform="matrix(0.7594 0.6506 -0.6506 0.7594 685.9525 -139.3494)" fill="#2D73A0" width="9.9" height="65.9"/>
			</g>
			<g>
				<g>
					<polygon fill="#4DC5D5" points="507.5,874 541.6,886.7 568.1,903.3 491.2,901.7 					"/>
				</g>
			</g>
			<g>
				<g>
					<circle fill="#4DC5D5" cx="557" cy="825.7" r="12.9"/>
				</g>
			</g>
			<g>
				<g>
					<circle fill="#3AA1C7" cx="438.5" cy="751.5" r="23.9"/>
				</g>
			</g>
		</g>
		<g>
			<g>
				
					<rect x="691.2" y="754.8" transform="matrix(0.2773 0.9608 -0.9608 0.2773 1269.7213 -92.1917)" fill="#2C5D76" width="9.9" height="86.2"/>
			</g>
			<g>
				
					<rect x="661.1" y="749.5" transform="matrix(0.7959 0.6054 -0.6054 0.7959 601.358 -275.0899)" fill="#2C5D76" width="95.3" height="9.9"/>
			</g>
			<g>
				<g>
					<circle fill="#379DCA" cx="745" cy="783.3" r="12.9"/>
				</g>
			</g>
			<g>
				<g>
					<polygon fill="#379DCA" points="658.4,803.8 653.5,839.9 643.2,869.3 627.8,794 					"/>
				</g>
			</g>
			<g>
				
					<rect x="675.4" y="818.9" transform="matrix(0.9572 0.2894 -0.2894 0.9572 275.6211 -160.4387)" fill="#2D73A0" width="9.9" height="65.8"/>
			</g>
			<g>
				<g>
					<g>
						<path fill="#4DC5D5" d="M673.7,549.8L673.7,549.8c-43.9,4.4-75.9,43.5-71.6,87.4l9.2,92.9c0.9,9.5,8.1,17.3,17.5,19
							c43.8,7.9,91.6,5.4,129.3-11.9c8.3-3.8,13.2-12.5,12.3-21.6l-9.3-94.2C756.7,577.5,717.6,545.4,673.7,549.8z"/>
					</g>
				</g>
				<g>
					<g>
						<g>
							<path fill="#ACDFEB" d="M647.6,574.4c-1.8,0.2-3.7-0.7-4.7-2.4c-1.3-2.3-0.6-5.3,1.8-6.6c2.2-1.2,4.4-2.4,6.7-3.4
								c2.4-1.1,5.3,0,6.4,2.4c1.1,2.5,0,5.3-2.4,6.4c-2,0.9-3.9,1.9-5.8,3C649,574.1,648.3,574.4,647.6,574.4z"/>
						</g>
					</g>
				</g>
				<g>
					<g>
						<g>
							<path fill="#ACDFEB" d="M621.3,601.6c-0.9,0.1-1.9-0.1-2.8-0.6c-2.4-1.3-3.3-4.2-2-6.6c4.4-8.1,10.1-15.3,17.1-21.2
								c2-1.8,5.1-1.5,6.9,0.5c1.7,2,1.5,5.1-0.5,6.9c-6.1,5.2-11.1,11.4-14.9,18.5C624.3,600.5,622.9,601.4,621.3,601.6z"/>
						</g>
					</g>
				</g>
				<g>
					<g>
						
							<ellipse transform="matrix(0.9951 -9.877919e-02 9.877919e-02 0.9951 -59.1531 75.1347)" fill="#2D73A0" cx="729.2" cy="634.9" rx="20.5" ry="33"/>
					</g>
				</g>
				<g>
					<g>
						<path fill="#FFFFFF" d="M732,663c-8.4,0.8-16.8-11.3-18.3-26.5s4.3-28.7,12.7-29.6c8.4-0.8,16.8,11.3,18.3,26.5
							C746.2,648.6,740.4,662.1,732,663z"/>
					</g>
				</g>
				<g>
					<g>
						<path fill="#6D6E71" d="M734.8,652.1c-3.7,0.4-8.8-7-9.8-16.7s2.7-17.9,6.3-18.3c3.7-0.4,8.8,7,9.8,16.7
							C742.1,643.5,738.4,651.7,734.8,652.1z"/>
					</g>
				</g>
				<g>
					<g>
						<path fill="#2D73A0" d="M734,583.3l-2.5-6.5c-0.8-2.1-2.8-3.5-5-3.5c-11.4,0.1-31.3,7.5-38.9,21.9c-0.7,1.4-0.8,3-0.3,4.4
							l0.6,1.5c0.6,1.7,2.8,2.3,4.2,1.1c10.7-8.8,26.2-14.9,39.6-15.4C733.4,586.8,734.6,584.9,734,583.3z"/>
					</g>
				</g>
				<g>
					<g>
						<path fill="#2D73A0" d="M758.2,652c-2.2,0.2-3.6,4.5-3.1,9.5c0.5,5,2.7,8.9,4.9,8.7l20.6-2l-1.8-18.2L758.2,652z"/>
					</g>
				</g>
				<g>
					<g>
						
							<ellipse transform="matrix(-0.9951 9.877918e-02 -9.877918e-02 -0.9951 1620.6676 1237.8784)" fill="#ACDFEB" cx="779.7" cy="659.1" rx="4.1" ry="9.1"/>
					</g>
				</g>
			</g>
			<g>
				<polygon fill="#2D73A0" points="698,814 688.3,812.3 661.2,714.6 670.9,716.4 				"/>
			</g>
			<g>
				<g>
					<circle fill="#4DC5D5" cx="693.1" cy="813.1" r="12.9"/>
				</g>
			</g>
			<g>
				<g>
					<polygon fill="#4DC5D5" points="666,874.7 700.8,885.4 728.3,900.3 651.4,903.3 					"/>
				</g>
			</g>
			<g>
				<g>
					<circle fill="#3AA1C7" cx="658.4" cy="714.8" r="23.9"/>
				</g>
			</g>
		</g>
		<g>
			<g>
				<polygon fill="#2C5D76" points="934.3,761.8 927.4,754.7 995.6,688.4 887.7,676.6 888.7,666.8 1017.6,680.9 				"/>
			</g>
			<g>
				<g>
					<circle fill="#379DCA" cx="1006.6" cy="684.6" r="12.9"/>
				</g>
			</g>
			<g>
				<g>
					<polygon fill="#379DCA" points="930.8,751.3 962.2,769.8 985.3,790.7 909.9,775.7 					"/>
				</g>
			</g>
			<g>
				<g>
					<g>
						<path fill="#4DC5D5" d="M879.1,512L879.1,512c-43.4,7.9-72.1,49.5-64.2,92.9l16.8,91.8c1.7,9.4,9.5,16.6,19,17.5
							c44.3,4.2,91.7-2.1,127.9-22.5c7.9-4.5,12.1-13.5,10.5-22.5l-17-93.1C964.1,532.8,922.5,504.1,879.1,512z"/>
					</g>
				</g>
				<g>
					<g>
						<g>
							<path fill="#ACDFEB" d="M855.1,538.7c-1.8,0.3-3.8-0.4-4.9-2c-1.5-2.2-1-5.2,1.2-6.8c2-1.4,4.2-2.8,6.4-4
								c2.3-1.3,5.3-0.4,6.6,1.9c1.3,2.4,0.4,5.3-1.9,6.6c-1.9,1-3.7,2.2-5.5,3.4C856.4,538.3,855.8,538.6,855.1,538.7z"/>
						</g>
					</g>
				</g>
				<g>
					<g>
						<g>
							<path fill="#ACDFEB" d="M831.1,567.9c-0.9,0.2-1.9,0.1-2.8-0.3c-2.5-1.1-3.6-3.9-2.5-6.4c3.7-8.4,8.8-16,15.3-22.6
								c1.9-1.9,5-1.9,6.9,0c1.9,1.9,1.9,5,0,6.9c-5.6,5.7-10.1,12.3-13.3,19.6C834,566.6,832.7,567.6,831.1,567.9z"/>
						</g>
					</g>
				</g>
				<g>
					<g>
						
							<ellipse transform="matrix(0.9837 -0.1799 0.1799 0.9837 -91.1951 179.0046)" fill="#2D73A0" cx="941.4" cy="592.3" rx="20.5" ry="33"/>
					</g>
				</g>
				<g>
					<g>
						<path fill="#FFFFFF" d="M946.4,620c-8.3,1.5-17.7-9.9-20.4-24.9c-2.7-15,2-29,10.3-30.5c8.3-1.5,17.7,9.9,20.4,24.9
							S954.8,618.5,946.4,620z"/>
					</g>
				</g>
				<g>
					<g>
						<path fill="#6D6E71" d="M948.3,608.9c-3.6,0.7-9.4-6.3-11.1-15.8c-1.8-9.6,1.2-18.1,4.8-18.8c3.6-0.7,9.4,6.3,11.1,15.8
							C954.9,599.8,951.9,608.3,948.3,608.9z"/>
					</g>
				</g>
				<g>
					<g>
						<path fill="#2D73A0" d="M941.9,540.4l-3-6.2c-1-2-3.1-3.2-5.3-3c-11.3,1.1-30.6,10-37,25c-0.6,1.4-0.6,3,0.1,4.4l0.7,1.4
							c0.8,1.7,2.9,2,4.2,0.8c10-9.6,24.9-17,38.2-18.6C941.6,544,942.7,542,941.9,540.4z"/>
					</g>
				</g>
				<g>
					<g>
						<path fill="#2D73A0" d="M971.7,607c-2.2,0.4-3.3,4.7-2.3,9.7c0.9,5,3.4,8.6,5.6,8.2l20.4-3.7l-3.3-17.9L971.7,607z"/>
					</g>
				</g>
				<g>
					<g>
						
							<ellipse transform="matrix(-0.9837 0.1799 -0.1799 -0.9837 2081.2449 1035.6997)" fill="#ACDFEB" cx="993.7" cy="612.2" rx="4.1" ry="9.1"/>
					</g>
				</g>
			</g>
			<g>
				<polygon fill="#2D73A0" points="802.9,867.1 794.2,862.2 844.8,772.1 872.7,693.2 882,696.4 853.9,776.2 				"/>
			</g>
			<g>
				<g>
					<circle fill="#4DC5D5" cx="849.4" cy="774.2" r="12.9"/>
				</g>
			</g>
			<g>
				<g>
					<polygon fill="#4DC5D5" points="797.9,858 822.4,885 847,903.2 807.5,903.3 770.7,875.2 					"/>
				</g>
			</g>
			<g>
				<g>
					<circle fill="#3AA1C7" cx="877.3" cy="677.7" r="23.9"/>
				</g>
			</g>
		</g>
		<g>
			<g>
				<polygon fill="#2C5D76" points="1234.3,846.9 1214.7,751.5 1092.4,706.4 1095.8,697.1 1223.3,744.1 1244,844.9 				"/>
			</g>
			<g>
				<g>
					<g>
						<circle fill="#379DCA" cx="1219" cy="751.3" r="12.9"/>
					</g>
				</g>
			</g>
			<g>
				<g>
					<g>
						<polygon fill="#379DCA" points="1231.9,842 1268.3,840.6 1299.1,845.7 1227.5,873.8 						"/>
					</g>
				</g>
			</g>
			<g>
				<g>
					<g>
						<g>
							<path fill="#4DC5D5" d="M1095.8,536L1095.8,536c-43.4,7.9-72.1,49.5-64.2,92.9l16.8,91.8c1.7,9.4,9.5,16.6,19,17.5
								c44.3,4.2,91.7-2.1,127.9-22.5c7.9-4.5,12.1-13.5,10.5-22.5l-17-93.1C1180.8,556.8,1139.2,528.1,1095.8,536z"/>
						</g>
					</g>
				</g>
				<g>
					<g>
						<g>
							<g>
								<path fill="#ACDFEB" d="M1071.9,562.7c-1.8,0.3-3.8-0.4-4.9-2c-1.5-2.2-1-5.2,1.2-6.8c2-1.4,4.2-2.8,6.4-4
									c2.3-1.3,5.3-0.4,6.6,1.9c1.3,2.4,0.4,5.3-1.9,6.6c-1.9,1-3.7,2.2-5.5,3.4C1073.2,562.3,1072.5,562.6,1071.9,562.7z"/>
							</g>
						</g>
					</g>
				</g>
				<g>
					<g>
						<g>
							<g>
								<path fill="#ACDFEB" d="M1047.9,591.9c-0.9,0.2-1.9,0.1-2.8-0.3c-2.5-1.1-3.6-3.9-2.5-6.4c3.7-8.4,8.8-16,15.3-22.6
									c1.9-1.9,5-1.9,6.9,0c1.9,1.9,1.9,5,0,6.9c-5.6,5.7-10.1,12.3-13.3,19.6C1050.8,590.6,1049.4,591.6,1047.9,591.9z"/>
							</g>
						</g>
					</g>
				</g>
				<g>
					<g>
						<g>
							
								<ellipse transform="matrix(0.9837 -0.1799 0.1799 0.9837 -91.9816 218.3844)" fill="#2D73A0" cx="1158.1" cy="616.3" rx="20.5" ry="33"/>
						</g>
					</g>
				</g>
				<g>
					<g>
						<g>
							<path fill="#FFFFFF" d="M1163.2,644.1c-8.3,1.5-17.7-9.9-20.4-24.9s2-29,10.3-30.5c8.3-1.5,17.7,9.9,20.4,24.9
								C1176.2,628.6,1171.5,642.5,1163.2,644.1z"/>
						</g>
					</g>
				</g>
				<g>
					<g>
						<g>
							<path fill="#6D6E71" d="M1165,633c-3.6,0.7-9.4-6.3-11.1-15.8c-1.8-9.6,1.2-18.1,4.8-18.8c3.6-0.7,9.4,6.3,11.1,15.8
								S1168.7,632.3,1165,633z"/>
						</g>
					</g>
				</g>
				<g>
					<g>
						<g>
							<path fill="#2D73A0" d="M1158.6,564.4l-3-6.2c-1-2-3.1-3.2-5.3-3c-11.3,1.1-30.6,10-37,25c-0.6,1.4-0.6,3,0.1,4.4l0.7,1.4
								c0.8,1.7,2.9,2,4.2,0.8c10-9.6,24.9-17,38.2-18.6C1158.4,568,1159.4,566.1,1158.6,564.4z"/>
						</g>
					</g>
				</g>
				<g>
					<g>
						<g>
							<path fill="#2D73A0" d="M1188.4,631c-2.2,0.4-3.3,4.7-2.3,9.7c0.9,5,3.4,8.6,5.6,8.2l20.4-3.7l-3.3-17.9L1188.4,631z"/>
						</g>
					</g>
				</g>
				<g>
					<g>
						<g>
							
								<ellipse transform="matrix(-0.9837 0.1799 -0.1799 -0.9837 2515.4951 1044.3727)" fill="#ACDFEB" cx="1210.4" cy="636.2" rx="4.1" ry="9.1"/>
						</g>
					</g>
				</g>
			</g>
			<g>
				<polygon fill="#2D73A0" points="1024.5,870.2 1016.9,863.9 1069.8,801.2 1092.4,707.1 1101.2,711.6 1078.1,806.7 				"/>
			</g>
			<g>
				<g>
					<g>
						<circle fill="#4DC5D5" cx="1073.9" cy="804" r="12.9"/>
					</g>
				</g>
			</g>
			<g>
				<g>
					<g>
						<polygon fill="#4DC5D5" points="1019.3,858 1043.8,885 1068.4,903.2 1029,903.3 992.2,875.2 						"/>
					</g>
				</g>
			</g>
			<g>
				<g>
					<g>
						<circle fill="#3AA1C7" cx="1094.1" cy="701.8" r="23.9"/>
					</g>
				</g>
			</g>
		</g>
	</g>
</g>
</svg>
